<svg fill="none" height="17" viewBox="0 0 20 17" width="20" xmlns="http://www.w3.org/2000/svg"><path d="m18.4134 1.66367c-1.0353-1.072813-2.4559-1.66367-4.0004-1.66367-1.1545 0-2.2118.348712-3.1426 1.03637-.4696.34711-.8952.77177-1.2704 1.26743-.37506-.49551-.80078-.92032-1.2706-1.26743-.93063-.687658-1.98791-1.03637-3.14239-1.03637-1.5445 0-2.96524.590857-4.00055 1.66367-1.022953 1.06028-1.58646 2.50877-1.58646 4.07885 0 1.616.630341 3.09526 1.98364 4.65538 1.21063 1.3956 2.95059 2.8123 4.96552 4.4528.68802.5603 1.46789 1.1953 2.27768 1.8717.21393.1791.48843.2776.77316.2776.2846 0 .5592-.0985.7729-.2773.8097-.6766 1.5901-1.3119 2.2784-1.8724 2.0146-1.6402 3.7546-3.0568 4.9652-4.4525 1.3533-1.56002 1.9835-3.03928 1.9835-4.65542 0-1.56994-.5635-3.01843-1.5866-4.07871z" fill="#ff6767"/></svg>
