<svg width="20" height="19" viewBox="0 0 20 19" fill="none" xmlns="http://www.w3.org/2000/svg">
<path d="M17.3 0H2.7C1.2 0 0 1.2 0 2.7V11.6C0 13.1 1.2 14.3 2.7 14.3V18.3L8.5 14.3H17.2C18.7 14.3 19.9 13.1 19.9 11.6V2.7C20 1.2 18.8 0 17.3 0ZM18.8 11.6C18.8 12.5 18.1 13.2 17.2 13.2H8.2L4 16.2V13.2H2.7C1.8 13.2 1.1 12.5 1.1 11.6V2.7C1.1 1.8 1.8 1.1 2.7 1.1H17.2C18.1 1.1 18.8 1.8 18.8 2.7V11.6Z" fill="#FF6347"/>
<path d="M14.4962 11.2444L6.1524 2.90059L5.30388 3.74911L13.6477 12.0929L14.4962 11.2444Z" fill="#FF6347"/>
<path d="M13.7115 2.53106L5.36774 10.8748L6.21626 11.7234L14.56 3.37958L13.7115 2.53106Z" fill="#FF6347"/>
</svg>
